<?xml version="1.0" encoding="iso-8859-1"?>
<!-- Generator: Adobe Illustrator 19.0.0, SVG Export Plug-In . SVG Version: 6.00 Build 0)  -->
<svg version="1.1" id="Layer_1" xmlns="http://www.w3.org/2000/svg" xmlns:xlink="http://www.w3.org/1999/xlink" x="0px" y="0px"
	 viewBox="0 0 512 512" style="enable-background:new 0 0 512 512;" xml:space="preserve">
<g>
	<path style="fill:#FFD3AE;" d="M129.652,163.917c-11.936,15.227,27.196,56.188,27.196,74.585c0,9.619-15.053,27.395-11.786,36.575
		c-8.278-1.938-45.316-12.598-54.18-12.598v-94.612c0-14.752-5.401-28.236-14.325-38.587l0.012-0.012V53.351
		c0-14.654,11.887-26.541,26.541-26.541s26.541,11.887,26.541,26.541L129.652,163.917L129.652,163.917z"/>
	<path style="fill:#FFD3AE;" d="M182.71,90.791v72.427c-16.91,2.731-33.161,10.619-46.206,23.664
		c-2.463,2.463-4.755,5.047-6.852,7.729V53.351V26.541C129.652,11.887,141.514,0,156.169,0c14.667,0,26.541,11.887,26.541,26.541
		V90.791z"/>
	<path style="fill:#FFD3AE;" d="M435.43,129.268l0.012,0.012c-8.912,10.351,10.753,45.296,10.753,60.047l-25.066,88.069
		c-8.875,0-17.507,1.024-25.785,2.963c3.267-9.18-24.737-33.458-24.737-43.077c0-18.397-15.443-51.611,11.753-73.366V53.351
		c0-14.654,11.875-26.541,26.529-26.541c14.654,0,26.541,11.887,26.541,26.541L435.43,129.268L435.43,129.268z"/>
	<path style="fill:#FFD3AE;" d="M382.36,53.351v147.052c-2.097-2.682-4.389-5.267-6.852-7.729
		c-13.045-13.045-29.297-20.933-46.206-23.664V90.791v-64.25C329.302,11.887,341.165,0,355.831,0
		c14.654,0,26.529,11.887,26.529,26.541L382.36,53.351L382.36,53.351z"/>
	<path style="fill:#FFD3AE;" d="M329.302,90.791v82.147c-4.487-0.719-9.01-1.085-13.545-1.085c-13.606,0-27.212,3.267-39.537,9.802
		v-40.427V90.791c0-14.654,11.887-26.541,26.541-26.541S329.302,76.137,329.302,90.791z"/>
	<path style="fill:#FFD3AE;" d="M235.78,90.791v69.447c-16.422-8.705-35.124-11.606-53.07-8.705V90.791
		c0-14.654,11.887-26.541,26.529-26.541C223.893,64.25,235.78,76.137,235.78,90.791z"/>
</g>
<g>
	<path style="fill:#E5B48F;" d="M207.102,117.601V90.791c0-10.259,5.818-19.156,14.332-23.573
		c-3.651-1.893-7.795-2.969-12.195-2.969c-14.654,0-26.517,11.887-26.517,26.541v26.809v110.566
		c2.097-2.682,4.389-5.267,6.852-7.729c5.358-5.358,11.264-9.831,17.528-13.45L207.102,117.601L207.102,117.601z"/>
	<path style="fill:#E5B48F;" d="M300.599,117.601V90.791c0-10.259,5.818-19.156,14.332-23.573
		c-3.651-1.893-7.795-2.969-12.195-2.969c-14.654,0-26.517,11.887-26.517,26.541v26.809v110.566
		c2.097-2.682,4.389-5.267,6.852-7.729c5.358-5.358,11.264-9.831,17.528-13.45V117.601L300.599,117.601z"/>
	<path style="fill:#E5B48F;" d="M353.682,53.351V26.541c0-10.259,5.818-19.156,14.332-23.573C364.362,1.075,360.218,0,355.819,0
		c-14.654,0-26.517,11.887-26.517,26.541v26.809v110.566c2.097-2.682,4.389-5.267,6.852-7.729
		c5.358-5.358,11.264-9.831,17.528-13.45L353.682,53.351L353.682,53.351z"/>
	<path style="fill:#E5B48F;" d="M406.74,80.16V53.351c0-10.259,5.818-19.156,14.333-23.573c-3.651-1.893-7.795-2.969-12.195-2.969
		c-14.654,0-26.517,11.887-26.517,26.541V80.16v148.689l12.984,15.471l11.396-2.042V80.16z"/>
</g>
<path style="fill:#F95428;" d="M400.258,215.938c0,9.619-1.646,19.202-4.913,28.382c-20.787,4.864-14.764,40.086-29.345,54.667
	c-17.763,17.763-54.241,16.824-57.008,43.207l-52.595,52.607l-0.39,0.39l-52.997-52.997l-0.073-0.695
	c-92.62-14.203-76.161-53.826-86.012-97.106c-0.024-0.098-0.183-0.049-0.28-0.073c-3.109-8.741-4.73-17.861-4.864-27.017
	c-0.024-0.451-0.024-0.914-0.024-1.365v-0.756c0-0.317,0-0.646,0.012-0.963c0.366-17.824,6.327-35.551,17.885-50.303
	c2.097-2.682,4.389-5.267,6.852-7.729c13.045-13.045,29.297-20.933,46.206-23.664c9.156-1.475,18.495-1.451,27.638,0.098
	c8.79,1.463,17.385,4.34,25.432,8.607c7.278,3.853,14.106,8.839,20.226,14.959c6.12-6.12,12.948-11.107,20.214-14.947
	c12.326-6.535,25.932-9.802,39.537-9.802c4.535,0,9.058,0.366,13.545,1.085c16.91,2.731,33.161,10.619,46.206,23.664
	c2.463,2.463,4.755,5.047,6.852,7.729c8.193,10.448,13.557,22.384,16.13,34.783C399.672,204.381,400.258,210.159,400.258,215.938z"
	/>
<path style="fill:#E54728;" d="M256.616,395.192l-0.305-0.305L202.936,341.5c-5.303-47.633-40.281-86.305-86.012-97.106
	c-3.194-8.741-4.913-17.91-5.145-27.09c-0.012-0.61-0.024-1.231-0.024-1.841v-0.28c0-0.317,0-0.646,0.012-0.963
	c0.366-17.824,6.327-35.551,17.885-50.303c2.097-2.682,4.389-5.267,6.852-7.729c13.045-13.045,29.297-20.933,46.206-23.664
	c9.156-1.475,18.495-1.451,27.638,0.098c-3.926,1.597-7.766,4.048-11.424,7.339c-4.316,3.889-8.376,8.961-12.009,15.215
	c-19.251,33.137-19.251,86.865,0,120.002l69.48,119.624L256.616,395.192z"/>
<g>
	<polygon style="fill:#E5B48F;" points="294.02,357.166 294.02,511.293 256.006,511.293 256.006,395.192 	"/>
	<path style="fill:#E5B48F;" d="M154.032,53.351V26.541c0-10.259,5.818-19.156,14.333-23.573C164.711,1.075,160.568,0,156.169,0
		c-14.654,0-26.517,11.887-26.517,26.541v26.809v110.566c2.097-2.682,4.389-5.267,6.852-7.729
		c5.358-5.358,11.264-9.831,17.528-13.45V53.351z"/>
</g>
<path style="fill:#E54728;" d="M400.258,215.938c0,9.619-1.646,19.202-4.913,28.382c-20.787,4.864-14.764,40.086-29.345,54.667
	c-17.763,17.763-54.241,16.824-57.008,43.207l-52.595,52.607l-0.39,0.39c0,0,134.242-170.841,142.484-196.48v-0.012
	C399.672,204.381,400.258,210.159,400.258,215.938z"/>
<g>
	<path style="fill:#E5B48F;" d="M101.608,80.16V53.351c0-10.259,5.818-19.156,14.332-23.573c-3.651-1.893-7.795-2.969-12.195-2.969
		c-14.654,0-26.517,11.887-26.517,26.541V80.16v110.566c2.097-2.682-5.34,66.493-2.877,64.03
		c5.358-5.358,20.993-9.268,27.257-12.887V80.16z"/>
	<polygon style="fill:#E5B48F;" points="294.02,357.166 294.02,511.293 256.006,511.293 256.006,395.192 	"/>
</g>
<path style="fill:#FFD3AE;" d="M480.296,108.701c-16.349,0-31.137,6.62-41.842,17.337c-1.036,1.036-2.048,2.121-3.011,3.243
	c-8.912,10.351-14.313,23.835-14.313,38.587v73.491c-8.876,0-17.507,1.024-25.785,2.963c-20.787,4.864-39.367,15.471-53.96,30.065
	c-17.763,17.763-29.626,41.427-32.393,67.81l-21.287,21.287l-31.698,31.71l-52.997-52.997
	c-5.047-48.047-40.269-87.109-86.366-97.874c-8.278-1.938-16.898-2.963-25.761-2.963v-73.491c0-14.752-5.401-28.236-14.325-38.587
	c-10.851-12.606-26.919-20.579-44.841-20.579c-2.889,0-5.523,1.17-7.413,3.072c-1.902,1.89-3.072,4.511-3.072,7.4v229.264
	c0,10.156,3.243,20.055,9.241,28.248l63.726,86.89v47.718h161.807h161.795v-47.718l63.726-86.89
	c6.01-8.193,9.241-18.092,9.241-28.248V119.173C490.768,113.394,486.075,108.701,480.296,108.701z"/>
<g>
	<path style="fill:#E5B48F;" d="M59.121,376.685c-5.998-8.193-9.241-18.092-9.241-28.248V119.173c0-2.572,0.931-4.928,2.476-6.748
		c-6.43-2.396-13.378-3.725-20.639-3.725c-2.889,0-5.523,1.17-7.413,3.072c-1.902,1.89-3.072,4.511-3.072,7.4v229.264
		c0,10.156,3.243,20.055,9.241,28.248l63.726,86.89v47.718h28.648v-47.718L59.121,376.685z"/>
	<polygon style="fill:#E5B48F;" points="287.704,363.482 287.704,512 256.006,512 256.006,395.192 	"/>
	<path style="fill:#E5B48F;" d="M425.48,241.358c14.432,0,26.133-11.7,26.133-26.133v-47.358c0-14.752,5.401-28.236,14.313-38.587
		c0.963-1.122,1.975-2.207,3.011-3.243c5.595-5.601,12.312-10.068,19.777-13.071c-1.908-2.582-4.964-4.266-8.418-4.266
		c-16.349,0-31.137,6.62-41.842,17.337c-1.036,1.036-2.048,2.121-3.011,3.243c-8.912,10.351-14.313,23.835-14.313,38.587v73.491
		H425.48z"/>
</g>
<g>
</g>
<g>
</g>
<g>
</g>
<g>
</g>
<g>
</g>
<g>
</g>
<g>
</g>
<g>
</g>
<g>
</g>
<g>
</g>
<g>
</g>
<g>
</g>
<g>
</g>
<g>
</g>
<g>
</g>
</svg>
